# xmcd
#
# Track frame offsets: 
#        150
#        14583
#        32745
#        47964
#        66947
#        81746
#        109944
#        123803
#        141203
#        159722
#        176197
#
# Disc length: 2539 seconds
#
# Revision: 0
# Processed by: cddbd v1.5.2PL0 Copyright (c) Steve Scherf et al.
# Submitted via: ExactAudioCopyFreeDBPlugin 1.0
#
DISCID=a309e90b
DTITLE=Kalo - Wild Change
DYEAR=2017
DGENRE=Rock
TTITLE0=One Mississippi
TTITLE1=Isabel
TTITLE2=Upside Down
TTITLE3=Fix
TTITLE4=Wild Change
TTITLE5=Only Love
TTITLE6=Free
TTITLE7=Pay To Play
TTITLE8=Smile and Blush
TTITLE9=Bad Girl
TTITLE10=Calling All Dreamers
EXTD=
EXTT0=
EXTT1=
EXTT2=
EXTT3=
EXTT4=
EXTT5=
EXTT6=
EXTT7=
EXTT8=
EXTT9=
EXTT10=
PLAYORDER=
